PathFileType	4	(X/Y/Z)	s09c0401.trc
DataRate	CameraRate	NumFrames	NumMarkers	Units	OrigDataRate	OrigDataStartFrame	OrigNumFrames
200	200	7	50	mm	200	500	2000
Frame#	Time	racr			lacr			c7			jug			rlel			rdr			llel			ldr			s2			lic			ric			lasi			rasi			rpsi			lpsi			rgt			lgt			rth1			rth2			rth3			rth4			rlfc			rmfc			rsh1			rsh2			rsh3			rsh4			rlmal			rmmal			rcal			rtoe			rmt5			lth1			lth2			lth4			lth3			llfc			lmfc			llmal			lmmal			lcal			lmt5			lsh1			lsh2			lsh3			lsh4			ltoe			SBIKE			LBIKE			RBIKE			
		X1	Y1	Z1	X2	Y2	Z2	X3	Y3	Z3	X4	Y4	Z4	X5	Y5	Z5	X6	Y6	Z6	X7	Y7	Z7	X8	Y8	Z8	X9	Y9	Z9	X10	Y10	Z10	X11	Y11	Z11	X12	Y12	Z12	X13	Y13	Z13	X14	Y14	Z14	X15	Y15	Z15	X16	Y16	Z16	X17	Y17	Z17	X18	Y18	Z18	X19	Y19	Z19	X20	Y20	Z20	X21	Y21	Z21	X22	Y22	Z22	X23	Y23	Z23	X24	Y24	Z24	X25	Y25	Z25	X26	Y26	Z26	X27	Y27	Z27	X28	Y28	Z28	X29	Y29	Z29	X30	Y30	Z30	X31	Y31	Z31	X32	Y32	Z32	X33	Y33	Z33	X34	Y34	Z34	X35	Y35	Z35	X36	Y36	Z36	X37	Y37	Z37	X38	Y38	Z38	X39	Y39	Z39	X40	Y40	Z40	X41	Y41	Z41	X42	Y42	Z42	X43	Y43	Z43	X44	Y44	Z44	X45	Y45	Z45	X46	Y46	Z46	X47	Y47	Z47	X48	Y48	Z48	X49	Y49	Z49	X50	Y50	Z50	
500	2.5000	534.555094	1307.161833	41.165770	673.463146	1285.722961	-298.770571	593.495732	1371.525597	-126.102003	597.413115	1235.070362	-125.210962	474.868593	1046.600409	33.228697	673.491056	906.606088	-50.953989	523.537923	1076.424807	-434.107661	650.806171	861.974270	-400.284285	161.676032	1170.149483	-289.802300	335.374987	1144.967749	-388.067187	259.993784	1172.234969	-110.306044	358.334522	1087.280386	-353.502114	302.517946	1113.632115	-113.916537	174.183101	1204.309876	-225.108751	205.357998	1201.642852	-328.992358	238.489066	1045.145870	-68.012203	273.616339	1007.549595	-433.636003	361.168162	979.203904	-69.804245	444.500182	952.161648	-78.389153	502.585192	885.823405	-80.850258	460.588059	976.348870	-99.517977	565.571259	806.113766	-108.090717	549.723494	788.101889	-206.357724	479.177884	749.455987	-79.446346	429.939828	675.543198	-93.221360	350.173808	638.480418	-91.746418	449.410494	658.558892	-123.649451	279.495278	567.607455	-92.903746	282.836187	578.017932	-170.129410	187.184487	552.905922	-128.725050	444.759533	493.242226	-127.295459	360.932259	493.966100	-63.070774	296.977267	874.982154	-428.015424	327.645669	796.827161	-412.601481	360.371553	801.440061	-393.674305	314.292871	707.634297	-404.932477	304.327810	612.077728	-389.402320	301.936084	597.180660	-292.472148	167.699222	273.218986	-405.158540	188.747360	272.506411	-338.019507	95.368927	261.305925	-371.448623	234.777841	156.525973	-430.145031	259.037216	522.699957	-416.859701	252.825899	436.763912	-410.498899	202.888357	363.050529	-412.141503	275.271827	430.239981	-377.990940	324.643684	137.606883	-359.848999	-64.842132	853.219098	-240.578738	21.132215	83.903523	-442.112595	21.120307	84.008291	-43.964924	
501	2.5050	535.116481	1306.780229	42.003839	674.097579	1284.906470	-297.841483	594.299338	1371.034338	-125.153178	597.736657	1234.582207	-124.234695	474.756349	1046.281792	33.416590	673.308660	906.649313	-50.850338	524.591286	1074.390816	-432.188727	652.270003	860.494880	-398.898316	162.437435	1171.157971	-290.611985	336.493324	1145.809510	-388.021589	259.793231	1172.775683	-110.466405	359.236926	1088.008692	-353.353971	302.369006	1114.211352	-113.974258	174.503746	1205.123978	-225.685520	206.084913	1202.627650	-329.351891	237.958889	1045.519741	-68.483410	275.317188	1008.354040	-433.992386	360.707651	979.388874	-70.176026	444.090589	952.309332	-78.367595	502.126871	886.102632	-80.205160	460.267754	976.708335	-99.340287	565.437070	806.313350	-108.123375	549.900043	788.375523	-206.252823	479.513400	748.958434	-79.378273	430.829077	674.798627	-93.255725	351.306412	637.145255	-91.789201	450.590298	657.923538	-123.605505	281.094822	565.689697	-93.084037	284.120144	576.312543	-170.229678	188.884616	550.282707	-128.716662	447.043830	493.112754	-127.255581	363.236990	492.935872	-63.013939	298.478324	875.730803	-427.857338	328.840762	797.543910	-412.074597	361.421240	802.148556	-392.862825	315.382240	708.420622	-404.505389	305.210585	612.812488	-389.360041	302.150949	597.966621	-292.238555	166.687620	274.785964	-405.227651	187.447688	274.118100	-337.957437	94.241157	263.709265	-371.421958	232.530585	157.434288	-430.101976	259.300775	523.719453	-416.910809	252.640060	437.744365	-410.572396	202.310164	364.257489	-412.227985	275.049052	431.211715	-378.107969	322.149805	137.478351	-359.828734	-64.832003	853.239106	-240.584642	21.136349	83.904892	-442.119034	21.124022	83.996773	-43.955775	
502	2.5100	535.658751	1306.436618	42.857069	674.757302	1284.298304	-296.938370	595.002973	1370.481403	-124.285533	598.124798	1234.038475	-123.211702	474.565943	1045.995957	33.574854	673.074388	906.710410	-50.752503	525.481524	1072.533530	-430.297175	653.717780	859.276915	-397.733646	163.159003	1172.197799	-291.374123	337.329806	1146.557739	-387.794741	259.621055	1173.295654	-110.622064	360.062454	1088.706830	-353.279198	302.251780	1114.857102	-114.040326	174.934384	1205.931664	-226.233516	206.725185	1203.494643	-329.650238	237.371749	1045.835177	-69.064685	276.939315	1009.182941	-434.326326	360.292189	979.611022	-70.478893	443.619531	952.451170	-78.306922	501.676145	886.220842	-80.115778	459.986966	976.894893	-99.159653	565.256107	806.464379	-108.206197	549.984664	788.579477	-206.136666	479.840954	748.448659	-79.351023	431.742091	673.953324	-93.205087	352.374460	635.738838	-91.780725	451.520121	657.276402	-123.660069	282.654595	563.928135	-93.032850	285.676341	574.491469	-170.245215	190.585720	547.522110	-128.574538	449.259701	492.952012	-127.209925	365.410929	491.949380	-62.890410	299.946235	876.407746	-427.693895	330.114399	798.301298	-411.651301	362.583642	802.852660	-392.179480	316.525496	709.132343	-404.218406	306.130610	613.599119	-389.451831	302.498294	598.768617	-292.046601	165.703258	276.446804	-405.318889	186.685785	275.442287	-338.088387	93.298904	266.214281	-371.350959	230.265945	158.388978	-430.073122	259.669421	524.736395	-417.054753	252.503134	438.781582	-410.693873	201.780555	365.558601	-412.295621	274.896428	432.070177	-378.139431	319.710125	137.360241	-359.807742	-64.823832	853.235951	-240.574910	21.126126	83.914518	-442.107738	21.116185	84.014384	-43.970524	
503	2.5150	536.188739	1306.083501	43.653780	675.420605	1283.634032	-296.010368	595.784474	1369.947285	-123.473303	598.504373	1233.512087	-122.313252	474.322001	1045.742192	33.780271	672.893825	906.619822	-50.726228	526.192850	1070.891114	-428.456986	654.956071	858.320487	-396.925262	163.696867	1172.911309	-291.889002	338.332183	1147.398386	-387.756895	259.487118	1173.863182	-110.740001	360.878066	1089.430427	-353.168379	302.127139	1115.447920	-114.106129	175.390162	1206.837543	-226.755751	207.485652	1204.604777	-330.025971	236.867358	1046.238241	-69.460639	278.548036	1009.938313	-434.650649	359.889025	979.806892	-70.669426	443.229326	952.545051	-78.334830	501.187218	886.284279	-80.071672	459.658873	977.075591	-99.011808	564.991771	806.647407	-108.214913	549.958327	788.674903	-206.024135	480.086596	747.852063	-79.208549	432.405296	672.980250	-93.200038	353.392899	634.234360	-91.825190	452.229397	656.630541	-123.718075	284.200949	562.129603	-92.842994	286.965457	572.664096	-170.235050	192.226918	544.777988	-128.564704	451.403155	492.813232	-127.202417	367.575894	490.851747	-62.764124	301.392193	877.153058	-427.590414	331.438102	798.960178	-411.323270	363.786337	803.540540	-391.620217	317.835773	709.774592	-404.004033	307.258776	614.314872	-389.520368	302.983219	599.608577	-292.049858	164.769052	278.144844	-405.393645	185.887465	276.884155	-338.151229	92.265977	268.652489	-371.299227	228.062121	159.304953	-430.037889	260.100324	525.690529	-417.199412	252.445422	439.841466	-410.802785	201.270987	366.978844	-412.351991	274.845394	433.021318	-378.318110	317.223172	137.361993	-359.785244	-64.825616	853.243508	-240.548131	21.131260	83.923496	-442.125024	21.107286	84.015675	-43.973612	
504	2.5200	536.767899	1305.719202	44.476249	676.066526	1282.976548	-295.173001	596.483274	1369.394486	-122.663357	598.935475	1232.971160	-121.356917	474.021746	1045.554122	33.996596	672.606784	906.834110	-50.437120	526.661169	1069.471674	-426.512158	655.948435	857.431689	-396.245623	164.353678	1174.002895	-292.390975	339.464740	1148.102437	-387.783659	259.388917	1174.476240	-110.858489	361.596347	1089.944940	-353.045742	302.035917	1116.083356	-114.139334	175.940370	1207.615176	-227.251102	208.104864	1205.518183	-330.115621	236.235132	1046.657671	-70.047288	280.094437	1010.736315	-434.895604	359.455146	979.972556	-70.954112	442.784406	952.608712	-78.366404	500.571067	886.369550	-80.069293	459.348894	977.202964	-98.885325	564.643823	806.697347	-108.305136	549.835873	788.746677	-205.928575	480.262229	747.139882	-79.026189	433.106594	671.980014	-93.130705	354.392949	632.655469	-91.810365	452.969630	655.640057	-123.753495	285.568352	560.076003	-92.881198	288.373579	570.738433	-170.171884	193.799999	541.948048	-128.458527	453.502839	492.609976	-127.110091	369.731305	489.779791	-62.599319	302.765962	877.858170	-427.507515	332.754307	799.714915	-411.043520	364.938790	804.362145	-391.159513	319.164307	710.569384	-403.910903	308.520409	615.047726	-389.679801	303.676179	600.273783	-292.123722	163.972517	279.758981	-405.344260	185.127158	278.367384	-338.143560	91.453114	271.245420	-371.166611	225.886167	160.347087	-430.010989	260.610092	526.750732	-417.317779	252.441986	440.853924	-410.913028	200.797839	368.330065	-412.387449	274.860746	433.886549	-378.433341	314.770142	137.376228	-359.786118	-64.808791	853.259336	-240.505148	21.141831	83.948371	-442.103089	21.125292	84.015859	-43.948806	
505	2.5250	537.308249	1305.232433	45.215961	676.726925	1282.558031	-294.425853	597.105268	1368.873827	-121.899516	599.408617	1232.464040	-120.533462	473.672998	1045.344392	34.249506	672.371776	906.869416	-50.260189	526.174910	1068.642208	-424.952187	656.575280	856.815048	-395.890069	164.543045	1175.886381	-290.928292	340.275477	1148.658746	-387.570387	259.348743	1175.072790	-110.992731	362.341703	1090.461219	-352.892324	301.943222	1116.728458	-114.160550	176.448356	1208.587339	-227.708584	212.206547	1204.590286	-331.760671	235.721992	1047.102656	-70.416541	281.541368	1011.529584	-435.125373	359.005075	980.172928	-71.217484	442.301610	952.679394	-78.429859	500.005584	886.310258	-80.115909	459.045526	977.293849	-98.818834	564.200863	806.725861	-108.494654	549.590997	788.734802	-205.849560	480.377811	746.393188	-78.890764	433.651548	670.946687	-93.131751	355.310451	630.984289	-91.797578	453.873373	655.092730	-123.636813	287.054270	558.055799	-92.752231	289.647033	568.727421	-170.153101	195.434584	539.012172	-128.309224	455.616198	492.372402	-127.058507	371.777429	488.601871	-62.503302	304.143592	878.572889	-427.443797	334.145218	800.504173	-410.874523	366.185236	805.132157	-390.774014	320.665011	711.305335	-403.916520	309.976596	615.715314	-389.882593	304.792762	600.987603	-292.246129	163.205474	281.538956	-405.422024	184.211390	280.091111	-338.093655	90.623333	273.939623	-371.123525	223.653626	161.418219	-429.956326	261.271430	527.740943	-417.459937	252.525394	441.962644	-411.050511	200.460611	369.752481	-412.359454	275.023359	434.846935	-378.678330	312.306174	137.366996	-359.769776	-64.798900	853.269104	-240.471787	21.130081	83.962635	-442.109046	21.114584	84.002189	-43.952085	
506	2.5300	537.838307	1304.780782	46.000383	677.442635	1281.961541	-293.545025	597.772407	1368.394496	-121.034176	599.892910	1231.997876	-119.612090	473.296979	1045.106580	34.564049	672.178909	906.909422	-50.115246	525.916628	1067.984990	-423.258441	656.866920	856.223963	-395.608629	165.231456	1176.643111	-291.504011	341.835835	1149.994181	-387.643123	259.397135	1175.795182	-111.133308	363.018259	1090.919007	-352.684775	301.880950	1117.382353	-114.179614	177.016817	1209.479554	-228.096531	213.950208	1204.925095	-332.296587	235.125574	1047.526526	-70.848536	282.919216	1012.274235	-435.178715	358.585642	980.382790	-71.367415	441.821923	952.762908	-78.452762	499.406979	886.294634	-80.147863	458.694762	977.355065	-98.787208	563.728311	806.670528	-108.545695	549.212897	788.675282	-205.790309	480.369761	745.645198	-78.860419	434.224283	669.898201	-93.144792	356.180651	629.313231	-91.785448	454.293218	653.930476	-123.875993	288.492682	556.054991	-92.597360	290.888071	566.490653	-170.127267	197.078049	535.931947	-128.159970	457.789416	492.171529	-126.801926	373.899731	487.408679	-62.414423	305.508595	879.325234	-427.462801	335.595841	801.320753	-410.879845	367.515798	805.981947	-390.548234	322.262422	712.084345	-404.069357	311.555457	616.401900	-390.076897	306.148934	601.665812	-292.513018	162.512743	283.416006	-405.484224	183.528073	281.717724	-338.079570	89.887991	276.750381	-371.027511	221.444607	162.564649	-429.912375	261.963386	528.774523	-417.649180	252.716381	443.029662	-411.212211	200.196991	371.225819	-412.370342	275.262047	435.784712	-378.952938	309.801585	137.355195	-359.789473	-64.778734	853.266258	-240.426889	21.145726	83.955934	-442.109967	21.126896	84.014092	-43.959406	
